<svg xmlns="http://www.w3.org/2000/svg" xml:space="preserve" width="31.875" height="24" viewBox="0 0 31.875 24"><linearGradient id="a" x1="9.646" x2="16.66" y1="715.762" y2="708.157" gradientTransform="translate(-8.36 -699.335)" gradientUnits="userSpaceOnUse"><stop offset="0" style="stop-color:#ff0097"/><stop offset="1" style="stop-color:#ffc516"/></linearGradient><path fill="url(#a)" d="M8.506 8.744q.041-.064.077-.131.022-.035.042-.072l.043-.073.041-.072.043-.072.041-.073.042-.072.043-.071.043-.072.042-.072q.022-.035.042-.072.023-.035.042-.071.023-.035.042-.071l.043-.071.042-.071.043-.072q.022-.035.042-.071l.042-.071q.022-.035.042-.071.023-.035.044-.072.043-.068.082-.136.045-.07.084-.14l.047-.078.044-.073c.013-.024.03-.048.043-.072l.044-.073.044-.072q.024-.036.044-.073l.044-.072.044-.072.044-.073.044-.072q.023-.036.043-.072l.044-.072q.023-.035.044-.072.023-.035.044-.072l.038-.062.053-.086.045-.075.045-.073.045-.074.045-.074.045-.073q.028-.044.053-.087l.071-.116.046-.075A3.109 3.109 0 0 0 5.81 1.335a3.1 3.1 0 0 0-.902 2.149l-.001.04v.011l-.001.043-.002.094-.001.094-.002.094-.002.094-.002.093-.002.094-.002.093-.002.122-.001.085-.003.099-.002.098-.003.098-.002.098-.003.098-.002.098-.003.098-.003.098-.002.097-.003.097-.002.098-.003.097-.003.097-.003.097-.003.097-.003.097-.002.064v.028q-.003.033-.003.067l-.003.099-.004.098-.003.098-.003.098q-.004.049-.004.098l-.004.098-.003.098-.005.098-.003.097-.004.097-.004.098q-.003.047-.004.097-.004.046-.005.096-.003.047-.004.096-.004.05-.004.099l-.005.099q-.004.048-.005.097l-.004.098q-.004.049-.005.097a1 1 0 0 0-.005.098 1 1 0 0 0-.005.096l-.006.097q-.004.048-.005.097l-.001.022q-.004.035-.004.07v.004l-.001.024q-.005.048-.007.098l-.005.097-.007.096q-.004.05-.005.097-.005.048-.007.097-.005.047-.007.096l-.007.095-.003.04q-.005.049-.007.097-.005.048-.007.098a1 1 0 0 0-.007.095l-.008.096a1 1 0 0 0-.008.095q-.005.046-.008.094l-.005.054q-.005.047-.008.096l-.009.095a1 1 0 0 0-.008.095l-.009.094q-.006.046-.01.093l-.007.064-.009.094q-.006.046-.01.093l-.011.093-.011.092q-.008.045-.012.091l-.008.07-.004.022q-.005.034-.007.07l-.008.043-.004.047-.011.068-.001.023-.012.077q-.008.043-.013.09l-.013.089-.014.086q-.009.043-.015.087l-.013.087-.015.086-.016.085a1 1 0 0 0-.017.092l-.015.084q-.01.042-.016.084l-.017.082-.02.097q-.01.04-.017.08l-.018.08q-.013.047-.022.096l-.018.082-.019.078a1 1 0 0 0-.023.092l-.021.085-.02.077a1 1 0 0 0-.025.09l-.023.085q-.012.037-.022.076-.015.043-.027.09l-.025.084-.025.074a1 1 0 0 0-.029.09q-.015.041-.027.084l-.024.075a1 1 0 0 0-.031.087q-.016.043-.029.085l-.027.076-.03.084-.032.088q-.016.038-.029.077l-.031.077a1 1 0 0 0-.035.093l-.03.078-.032.079a1 1 0 0 0-.035.083q-.019.04-.033.083-.019.04-.033.079l-.035.081-.036.081q-.019.04-.034.082-.019.04-.036.082-.02.04-.037.081l-.034.073v.001l-.004.009-.033.072q-.02.04-.038.083l-.039.083-.04.084q-.016.03-.03.063l-.003.006q-.02.038-.037.077l-.014.024-.027.059-.024.043-.017.041-.033.061-.009.023q-.022.04-.041.079l-.002.007q-.014.025-.027.053a1 1 0 0 0-.042.084l-.044.084-.044.085q-.023.042-.044.085l-.045.084-.023.044q-.023.041-.044.084l-.045.085-.045.084-.046.085q-.024.042-.046.085-.025.042-.047.085l-.018.032-.008.015-.021.039-.016.03-.046.084-.046.085q-.024.041-.047.085a1 1 0 0 0-.047.085l-.048.085-.048.085a1 1 0 0 0-.048.082q-.026.042-.048.086l-.008.014q-.025.041-.048.084l-.048.084a1 1 0 0 0-.048.084l-.049.084-.049.085q-.025.04-.048.085l-.05.085q-.026.042-.049.084-.026.042-.049.085l-.05.085-.048.08-.046.08q-.026.04-.049.083l-.047.085-.049.084-.05.084-.05.084q-.026.041-.05.084l-.05.084q-.026.041-.05.084l-.05.084q-.026.042-.05.085-.026.041-.05.085-.026.041-.05.084l-.051.085a2.473 2.473 0 1 0 4.602 1.256l-.001-.016q.003-.031.004-.064l-.001-.019.004-.061-.001-.023.003-.057-.001-.026.004-.054-.001-.029.004-.05-.001-.034.004-.046-.001-.038.004-.042-.001-.041.003-.038v-.045l.004-.034v-.049l.003-.03v-.054l.003-.025v-.057l.002-.021.001-.063q0-.01.003-.017l.001-.066.001-.013.002-.07.001-.009q.002-.037.002-.075l.001-.004q.003-.045.003-.088.005-.079.006-.157.005-.064.006-.127l.004-.082q.003-.04.004-.082.003-.041.004-.083l.004-.082.004-.082.004-.083q.003-.041.004-.084l.005-.082a2 2 0 0 0 .009-.166q.004-.042.005-.084l.005-.084.003-.082q.005-.057.007-.111.008-.073.009-.145.004-.04.005-.081.004-.04.005-.082.004-.04.005-.082l.006-.082.006-.082q.005-.041.006-.083l.006-.082.007-.083.007-.083q.005-.042.006-.083.008-.065.012-.13l.009-.099q.005-.041.007-.082.005-.04.007-.082l.008-.082q.005-.04.008-.082.006-.04.008-.082.006-.04.009-.083l.009-.082q.009-.058.013-.115l.012-.099.009-.081.01-.082.01-.081q.006-.041.01-.083.007-.04.011-.081l.012-.083q.012-.06.017-.121.007-.04.012-.082.008-.04.012-.081.008-.04.013-.081l.013-.081q.009-.04.014-.082.01-.049.017-.097.01-.048.017-.099.009-.04.015-.08l.015-.081.015-.081q.01-.04.016-.081.012-.049.021-.099a1 1 0 0 0 .019-.091l.018-.08.018-.081q.011-.04.019-.08.011-.04.02-.081a1 1 0 0 0 .026-.106l.02-.079.021-.08.022-.08.022-.079q.017-.05.029-.101l.024-.083q.014-.04.024-.079l.024-.079q.014-.038.025-.078l.026-.083a1 1 0 0 0 .033-.1l.027-.078q.015-.039.027-.077l.028-.078q.016-.038.028-.076.022-.052.039-.106l.029-.077.03-.077q.016-.037.03-.077.016-.036.031-.076l.031-.077a1 1 0 0 0 .044-.107l.031-.076.032-.075.032-.076.033-.075q.018-.037.033-.075a1 1 0 0 0 .041-.092q.023-.046.043-.094l.034-.075q.018-.036.034-.075l.034-.074.035-.074q.019-.036.035-.074.019-.037.035-.073a1 1 0 0 0 .058-.12l.036-.074.037-.073.037-.073.037-.074.037-.073q.02-.035.037-.072.02-.036.037-.072l.043-.084q.033-.058.063-.12.02-.035.038-.074.021-.036.039-.073.02-.034.038-.073l.039-.073q.02-.034.039-.072l.039-.073.039-.072.039-.071.039-.072.044-.082q.04-.064.074-.133l.041-.07q0-.004.002-.007l.035-.062.005-.011.033-.055.008-.017.03-.05.011-.023q.013-.02.026-.044l.014-.028.024-.038.016-.033.022-.034.019-.039q.01-.013.018-.028l.023-.044.015-.022.026-.048.012-.02.028-.052.01-.015.031-.056.007-.01.034-.061.004-.006q.02-.033.037-.065l.001-.002q.03-.062.061-.119"/><linearGradient id="b" x1="24.791" x2="15.706" y1="716.538" y2="705.773" gradientTransform="translate(-8.36 -699.335)" gradientUnits="userSpaceOnUse"><stop offset="0" style="stop-color:#ff7300"/><stop offset="1" style="stop-color:#ffc516"/></linearGradient><path fill="url(#b)" d="M17.663 19.12a3 3 0 0 0-.138-.175 3 3 0 0 0-.14-.175 3 3 0 0 0-.137-.173 3 3 0 0 0-.134-.171 3 3 0 0 0-.132-.17 2 2 0 0 0-.13-.168 2 2 0 0 0-.136-.177 2 2 0 0 0-.145-.188 2 2 0 0 0-.138-.18 2 2 0 0 0-.126-.164 2 2 0 0 0-.122-.161 2 2 0 0 0-.139-.184 2 2 0 0 0-.14-.187 2 2 0 0 0-.133-.178 2 2 0 0 0-.114-.155 2 2 0 0 0-.138-.187 2 2 0 0 0-.135-.186 2 2 0 0 0-.118-.165 2 2 0 0 0-.13-.182 1.4 1.4 0 0 0-.13-.185 2 2 0 0 0-.118-.172 1.5 1.5 0 0 0-.127-.184 2 2 0 0 0-.121-.183 1.3 1.3 0 0 0-.119-.177q-.012-.025-.025-.047a1 1 0 0 0-.09-.132l-.062-.107a1 1 0 0 0-.056-.076 1 1 0 0 0-.097-.162l-.014-.017a1.3 1.3 0 0 0-.113-.186 1.3 1.3 0 0 0-.11-.189 1.4 1.4 0 0 0-.102-.179 1 1 0 0 0-.11-.198 1 1 0 0 0-.1-.186 1 1 0 0 0-.096-.187 1 1 0 0 0-.095-.193 1 1 0 0 0-.095-.197 1 1 0 0 0-.088-.192 1 1 0 0 0-.084-.193 1 1 0 0 0-.081-.194 1 1 0 0 0-.082-.206 1 1 0 0 0-.076-.198 1 1 0 0 0-.071-.198 1 1 0 0 0-.069-.2 1 1 0 0 0-.071-.214 1 1 0 0 0-.062-.197 1.2 1.2 0 0 0-.063-.209 1.2 1.2 0 0 0-.06-.211 1.4 1.4 0 0 0-.057-.204 1.4 1.4 0 0 0-.055-.213l-.003-.022a1.4 1.4 0 0 0-.051-.184l-.015-.087-.034-.119a1 1 0 0 0-.032-.153l-.02-.06a1.3 1.3 0 0 0-.049-.218 2 2 0 0 0-.045-.2 1.4 1.4 0 0 0-.048-.221 1.3 1.3 0 0 0-.042-.216 2 2 0 0 0-.041-.2 2 2 0 0 0-.045-.225 2 2 0 0 0-.044-.23 2 2 0 0 0-.036-.187 2 2 0 0 0-.041-.219 2 2 0 0 0-.042-.231 2 2 0 0 0-.041-.227 2 2 0 0 0-.036-.2 2 2 0 0 0-.035-.205 2 2 0 0 0-.038-.222 2 2 0 0 0-.039-.233 3 3 0 0 0-.037-.222 3 3 0 0 0-.036-.21 2 2 0 0 0-.035-.213 3 3 0 0 0-.034-.216 2 2 0 0 0-.034-.217 3 3 0 0 0-.033-.22 2 2 0 0 0-.036-.221 3 3 0 0 0-.035-.216 3 3 0 0 0-.034-.218 3 3 0 0 0-.034-.22 3 3 0 0 0-.028-.191 3 3 0 0 0-.036-.243 3 3 0 0 0-.033-.222 3 3 0 0 0-.033-.222 3 3 0 0 0-.033-.224 3.133 3.133 0 0 0-5.327-1.856 3.13 3.13 0 0 0-.158 4.257q.068.09.142.177.067.09.143.177.067.088.139.172.065.087.137.17.058.076.12.148.064.087.135.17.071.1.153.194.069.096.148.188l.01.01q.052.073.11.142.01.014.022.024.046.066.096.13l.036.039c.028.038.053.077.084.114l.049.055q.033.05.07.098l.062.071.058.083q.037.045.076.088l.044.065q.043.055.089.107.014.023.03.045.05.066.104.128l.016.025q.055.078.117.148 0 .005.003.006.068.098.144.186.062.09.131.17.062.091.131.173.062.092.131.174.061.093.131.176.06.094.131.177.059.091.127.174.06.093.13.177.06.093.13.177.059.095.129.18.058.096.128.182.054.088.117.168.057.094.126.18.057.098.126.185.054.096.121.181.05.09.113.172.053.1.122.187.052.1.118.188.048.092.108.175.05.1.114.188.047.1.11.189.043.094.102.178.046.105.11.199.04.095.098.182.04.1.098.191.039.101.096.194.036.096.089.187.035.104.093.202.033.098.083.189.033.108.086.206.029.1.076.191.029.105.077.203.027.104.073.201.024.102.068.198.024.11.07.214.022.099.061.195a1.2 1.2 0 0 0 .064.209q.02.107.06.211.02.1.054.197.019.11.058.215.018.11.054.217.018.1.049.199.017.107.051.212.016.109.05.218.014.108.047.217.014.1.043.2.016.108.047.216.015.11.045.217.014.107.042.215.014.108.041.215a2 2 0 0 0 .036.197l.006.018q.01.083.028.168l.013.049q.007.07.021.137l.02.08q.005.052.014.106t.025.109l.008.077q.013.069.029.136l.004.049q.013.083.032.164l.001.023q.014.11.039.216.013.109.037.215.013.11.037.216.014.11.036.214.012.108.035.214.012.108.034.213.012.107.034.212.011.102.031.2.012.121.035.238a2.653 2.653 0 1 0 4.646-2.027"/><linearGradient id="c" x1="29.495" x2="22.605" y1="710.864" y2="718.553" gradientTransform="translate(-8.36 -699.335)" gradientUnits="userSpaceOnUse"><stop offset="0" style="stop-color:#6e0097"/><stop offset="1" style="stop-color:#ff7300"/></linearGradient><path fill="url(#c)" d="m24.509 11.597.077-.063.077-.063.078-.063q.04-.03.077-.063.04-.03.078-.063l.079-.064q.039-.03.078-.064l.079-.063q.008-.005.014-.012l.048-.039.017-.013.012-.011q.04-.03.078-.062l.078-.063q.04-.03.078-.063.039-.03.078-.064l.078-.062.079-.064q.182-.141.35-.308a3.96 3.96 0 1 0-6.734-3.192l-.01.087-.01.086-.008.088-.01.086-.011.087-.01.088-.011.087-.011.087-.011.087-.011.087-.011.088-.011.088a2 2 0 0 0-.017.141l-.014.11-.011.086-.011.086-.011.086-.011.087-.011.086-.012.087-.011.086-.012.088-.012.087-.012.087-.031.231-.012.086-.012.086-.012.086-.012.087-.013.087-.013.091-.007.051-.002.016q-.007.04-.012.083-.007.04-.012.084-.007.04-.012.083-.01.056-.016.113-.013.075-.023.152-.012.066-.02.13l-.013.081-.013.08-.013.08q-.008.04-.013.081-.008.04-.013.081l-.014.08-.014.082-.014.081-.014.081q-.008.04-.014.082l-.02.112q-.016.071-.026.144l-.018.094-.015.078q-.01.039-.016.079-.009.04-.015.079-.01.039-.016.079l-.016.079-.017.079-.017.08q-.016.063-.027.128-.014.056-.026.114-.01.038-.018.077l-.018.077-.019.077-.019.078-.02.079-.022.084a1 1 0 0 0-.034.13l-.023.084-.021.075-.022.076-.023.076-.023.077q-.018.052-.033.106a1 1 0 0 0-.032.1q-.013.036-.024.074-.015.036-.026.073l-.026.075-.027.074a1 1 0 0 0-.042.113q-.017.038-.032.08l-.03.072-.03.072-.031.071q-.024.047-.043.096l-.042.089-.033.07-.034.069q-.019.034-.035.069l-.047.089-.047.083-.003.007-.029.047-.01.021-.022.033-.017.034-.014.02-.026.046-.005.007q-.024.037-.046.076-.03.044-.058.09l-.043.066-.043.065q-.024.03-.044.064-.026.034-.05.07l-.071.097q-.024.03-.047.063l-.047.061q-.025.03-.048.062l-.048.061-.07.086-.066.079-.051.061-.051.059-.052.059-.052.058a1 1 0 0 0-.069.078l-.082.088-.055.059q-.028.028-.054.058l-.055.057-.055.057-.056.057q-.035.034-.067.069a2 2 0 0 0-.098.097q-.032.029-.062.061l-.058.057-.058.056-.058.056-.058.055-.058.055-.058.054q-.042.037-.082.077a2 2 0 0 0-.107.099q-.034.03-.066.061l-.061.056-.061.055-.061.054-.061.055q-.032.026-.06.054l-.056.052-.061.053-.06.054q-.032.027-.063.056a2 2 0 0 0-.112.098q-.06.048-.114.099l-.063.054-.063.055-.064.054-.008.006-.004.003-.04.033-.069.059-.067.057-.066.057-.067.057a2.713 2.713 0 1 0 4.397 2.452l.014-.095.014-.095.014-.094.013-.086.01-.077q.01-.052.016-.106l.017-.105q.009-.052.016-.105l.017-.104q.009-.048.016-.097.009-.049.016-.099.01-.053.017-.104.01-.053.018-.107.01-.051.018-.104.011-.051.018-.104.011-.052.019-.103 0-.009.003-.014l.006-.032.009-.057.004-.016.019-.104.02-.102q.011-.051.02-.103a2 2 0 0 0 .028-.137l.007-.034.006-.03.008-.038q.012-.05.021-.102l.021-.099.022-.1.013-.053q.012-.049.022-.099l.023-.097.024-.095q.01-.034.016-.065.013-.047.023-.095.014-.045.024-.093.014-.045.025-.091l.02-.075q.014-.045.025-.09.014-.041.026-.086l.024-.082.026-.086q.015-.04.028-.082l.028-.087q.015-.04.027-.08.018-.043.033-.088l.028-.079.029-.075q.02-.045.036-.094l.029-.073.04-.093.03-.071.038-.083q.019-.04.035-.079l.037-.074q.022-.041.041-.086l.035-.066q.025-.043.046-.088l.022-.037.013-.027q.027-.043.049-.088l.037-.063a1 1 0 0 0 .053-.089l.038-.063a1 1 0 0 0 .052-.08l.044-.069.049-.071q.026-.036.051-.077l.045-.062q.031-.04.059-.083.024-.03.047-.063.031-.038.06-.078l.048-.065.053-.065q.03-.036.058-.074.028-.031.055-.066l.058-.068q.03-.033.056-.068l.059-.068.056-.061.06-.069.064-.069.051-.054.065-.07.066-.07q.035-.034.069-.07l.045-.046q.036-.034.069-.07l.071-.071.072-.071.036-.035.036-.034.002-.002.034-.034q.039-.035.074-.071.039-.034.075-.072.04-.035.076-.072l.023-.022.03-.028q.013-.01.024-.023l.022-.02.076-.071.077-.071a1 1 0 0 0 .078-.072l.079-.071.006-.006.002-.002.072-.065.004-.004.078-.069.079-.07.079-.07.08-.07.081-.07q.042-.034.081-.07l.075-.065q.033-.028.064-.057l.081-.069.081-.069.081-.069.081-.069.082-.069.082-.069.002-.002q.055-.043.109-.09l.074-.062q.039-.03.075-.062l.075-.063.076-.064q.04-.03.076-.063l.042-.036.01-.006.066-.056.021-.016.055-.046.032-.025.045-.038.041-.033.035-.03.052-.041.025-.023.062-.049.016-.014.071-.058.006-.006q.014-.013.029-.024.036-.034.075-.065"/><linearGradient id="d" x1="31.231" x2="42.015" y1="706.069" y2="723.32" gradientTransform="translate(-8.36 -699.335)" gradientUnits="userSpaceOnUse"><stop offset=".022" style="stop-color:#6e0097"/><stop offset="1" style="stop-color:#ff0009"/></linearGradient><path fill="url(#d)" d="m31.104 21.001-.069-.084-.069-.082q-.032-.042-.068-.082l-.053-.064a1 1 0 0 0-.069-.083l-.068-.081a1 1 0 0 0-.066-.081l-.064-.081q-.03-.04-.062-.076-.031-.042-.065-.082l-.063-.079a1 1 0 0 0-.062-.079l-.063-.081a1 1 0 0 0-.066-.085 1 1 0 0 0-.06-.077q-.027-.04-.056-.076a1 1 0 0 0-.068-.091 1 1 0 0 0-.06-.08l-.053-.074a1 1 0 0 0-.065-.09 1 1 0 0 0-.061-.085q-.023-.036-.048-.069a1 1 0 0 0-.066-.095 1 1 0 0 0-.053-.079 1 1 0 0 0-.053-.081l-.006-.012a1 1 0 0 0-.054-.083l-.022-.038-.021-.031a1 1 0 0 0-.055-.09l-.004-.006-.043-.072a1 1 0 0 0-.057-.097q-.02-.039-.043-.076-.023-.05-.053-.097a1 1 0 0 0-.043-.08 1 1 0 0 0-.05-.097l-.041-.081a1 1 0 0 0-.047-.098 1 1 0 0 0-.04-.083 1 1 0 0 0-.042-.095 1 1 0 0 0-.039-.087 1 1 0 0 0-.036-.086 1 1 0 0 0-.041-.099 1 1 0 0 0-.033-.085 1 1 0 0 0-.038-.1q-.013-.045-.031-.086a1 1 0 0 0-.036-.104l-.029-.085a1 1 0 0 0-.033-.105l-.026-.084a1 1 0 0 0-.032-.108l-.023-.081a1 1 0 0 0-.031-.11q-.01-.043-.022-.085a1 1 0 0 0-.027-.103 1 1 0 0 0-.026-.104l-.02-.083a1 1 0 0 0-.025-.111q-.01-.05-.023-.098a1 1 0 0 0-.02-.09 1 1 0 0 0-.021-.104l-.001-.009q-.008-.047-.021-.093l-.005-.04-.013-.054-.012-.077-.006-.02a1 1 0 0 0-.019-.103l-.019-.098-.018-.101a1 1 0 0 0-.017-.102q-.006-.052-.017-.104l-.016-.092a1 1 0 0 0-.017-.104 1 1 0 0 0-.016-.104 1 1 0 0 0-.016-.105 1 1 0 0 0-.016-.108q-.004-.038-.012-.077l-.015-.106-.016-.107-.014-.107-.015-.108-.014-.11a1 1 0 0 0-.015-.11l-.007-.056-.015-.108-.014-.108-.014-.11q-.005-.055-.013-.11-.005-.054-.014-.11l-.013-.111q-.005-.056-.013-.111-.006-.056-.014-.111l-.003-.027-.003-.028-.008-.058-.003-.023q-.005-.055-.012-.109-.005-.056-.013-.11-.005-.056-.012-.11-.005-.056-.013-.111l-.012-.11-.012-.111q-.005-.056-.012-.111l-.013-.112-.012-.113-.012-.112-.013-.113-.011-.109-.006-.053-.004-.041-.011-.108-.012-.109q-.005-.056-.012-.111-.004-.056-.011-.11l-.011-.11-.009-.095-.013-.135-.011-.106-.011-.105-.01-.105-.011-.107-.01-.107q-.004-.052-.011-.106l-.01-.107-.007-.072-.011-.105-.011-.106-.011-.106-.01-.107-.011-.106-.01-.107-.01-.106-.01-.107-.01-.107-.01-.108q-.004-.054-.011-.107l-.01-.108-.01-.108-.011-.108-.004-.045-.009-.107-.01-.11-.01-.106-.01-.108-.01-.107-.01-.108q-.003-.052-.01-.107l-.01-.108-.01-.107-.01-.107a4 4 0 1 0-6.902 3.057l.069.075.069.074.069.074.069.074.069.074q.059.067.122.132l.076.082.003.003.062.068.006.006q.029.033.059.064l.009.009.056.061.012.012.053.058.015.015.068.074.047.052.022.022.044.049.024.024.04.045.029.029q.017.021.037.041l.032.033.033.037.035.037.03.034.038.04.026.03.042.044.023.027.045.048.02.023.05.051.016.019q.026.029.052.055l.012.015.056.06.009.01q.029.034.06.064l.005.006.065.07q.053.061.108.118.033.038.068.074.032.038.068.073.032.038.068.074l.068.075.068.073q.034.038.069.074l.068.076q.062.07.128.136l.066.073q.032.036.065.07l.065.071q.031.037.064.071l.065.071.065.071q.031.036.065.071l.064.072.065.071q.031.037.065.072l.065.072a4 4 0 0 0 .13.144l.065.072.065.073.064.073.065.072.065.073.065.073q.044.055.092.105.053.066.11.124.03.037.063.072.03.037.063.072.03.037.062.071.03.037.063.072.03.037.063.072.03.037.063.073.03.037.063.073.03.037.063.073.03.037.063.073l.063.074q.03.037.064.073.038.049.08.094.043.057.091.107.029.038.061.073.029.037.061.073.03.038.062.073.029.039.061.074.03.038.062.074.029.039.061.074.029.04.061.076.034.045.071.087.038.051.079.098.028.038.06.075.028.038.059.074.029.04.06.076a1 1 0 0 0 .059.076q.028.04.059.077.035.05.074.096.029.043.061.081.027.04.057.077l.057.078q.027.04.057.078a1 1 0 0 0 .057.078 1 1 0 0 0 .068.097q.026.04.055.078.026.041.055.08.025.04.054.081a1 1 0 0 0 .061.093 1 1 0 0 0 .053.081 1 1 0 0 0 .052.081 1 1 0 0 0 .051.084q.025.047.055.092a1 1 0 0 0 .049.082q.023.043.048.085.021.044.047.085.023.048.05.093.02.043.045.086a1 1 0 0 0 .043.086q.02.045.042.087.02.047.045.095a1 1 0 0 0 .04.088q.018.044.039.088.017.049.041.097.016.045.037.089.015.047.036.09.014.046.033.091.016.05.036.1.014.045.032.091a1 1 0 0 0 .03.091q.014.052.032.102a1 1 0 0 0 .03.094q.011.046.027.092.01.047.026.093.012.049.026.096.011.053.028.105a1 1 0 0 0 .024.094 1 1 0 0 0 .023.093l.021.092q.01.06.027.117l.022.094a1 1 0 0 0 .021.094q.008.048.02.094.007.047.019.094l.018.093q.01.063.023.128l.001.003q.005.039.014.078l.004.017.01.065.007.029.006.052.01.043.005.039q.005.028.012.055l.003.027q.005.034.013.068l.001.013.014.08v.002q.008.073.023.145a1 1 0 0 0 .015.096q.006.048.015.095l.014.095q.006.048.014.095.005.047.014.095.005.047.013.095l.013.095a1.663 1.663 0 0 0 3.319-.157 1.7 1.7 0 0 0-.438-1.107"/></svg>